<?xml version="1.0" standalone="no"?>
<!DOCTYPE svg PUBLIC "-//W3C//DTD SVG 20010904//EN"
 "http://www.w3.org/TR/2001/REC-SVG-20010904/DTD/svg10.dtd">
<svg version="1.0" xmlns="http://www.w3.org/2000/svg"
 width="225.000000pt" height="225.000000pt" viewBox="0 0 225.000000 225.000000"
 preserveAspectRatio="xMidYMid meet">

<g transform="translate(0.000000,225.000000) scale(0.100000,-0.100000)"
fill="#000000" stroke="none">
<path d="M0 1125 l0 -1125 1125 0 1125 0 0 1125 0 1125 -1125 0 -1125 0 0
-1125z m1153 668 c-3 -7 -11 -13 -18 -13 -17 0 -26 25 -13 38 13 13 38 -7 31
-25z m210 -60 c-7 -17 -30 -17 -35 -1 -3 7 0 18 6 24 13 14 36 -5 29 -23z
m-396 -4 c-1 -11 -8 -18 -17 -16 -19 3 -31 30 -17 39 17 10 36 -2 34 -23z
m-84 -125 c-3 -8 -11 -14 -18 -14 -18 0 -26 25 -12 39 14 14 38 -5 30 -25z
m304 19 c2 -6 -6 -13 -17 -15 -18 -2 -12 -9 31 -33 53 -30 62 -42 104 -134 28
-63 32 -61 -160 -61 -192 0 -188 -2 -160 61 42 92 51 104 104 134 42 24 49 31
32 33 -21 3 -27 13 -14 26 11 11 76 2 80 -11z m256 -12 c-6 -22 -40 -25 -40
-3 0 9 5 20 10 24 17 10 35 -2 30 -21z m-450 -309 c33 -20 67 -86 67 -132 0
-155 -201 -217 -280 -87 -38 62 -18 178 37 214 52 35 121 36 176 5z m-459 9
c3 -5 -3 -11 -14 -14 -17 -4 -20 -14 -20 -56 l0 -51 65 0 65 0 0 55 c0 42 -3
55 -15 55 -8 0 -15 5 -15 10 0 6 27 10 60 10 57 0 78 -11 45 -24 -12 -4 -15
-29 -15 -131 0 -104 2 -125 15 -125 8 0 15 -6 15 -12 0 -9 -19 -13 -60 -13
-41 0 -60 4 -60 13 0 6 7 12 15 12 12 0 15 14 15 65 l0 65 -65 0 -65 0 0 -65
c0 -50 3 -65 14 -65 8 0 18 -4 21 -10 4 -6 -19 -10 -62 -10 -59 1 -66 2 -50
14 15 11 17 31 17 140 0 105 -2 126 -15 126 -8 0 -15 5 -15 10 0 12 117 13
124 1z m826 -33 c0 -43 -5 -44 -24 -6 -8 17 -22 24 -49 26 l-37 3 0 -130 c0
-129 2 -137 33 -132 4 0 7 -6 7 -15 0 -11 -5 -14 -16 -10 -9 3 -41 6 -72 7
-48 0 -54 2 -34 11 21 11 22 16 22 140 l0 128 -29 0 c-32 0 -61 -22 -61 -46 0
-8 -4 -14 -10 -14 -11 0 -13 39 -4 64 5 14 27 16 140 16 l134 0 0 -42z m270 2
c0 -22 -4 -40 -10 -40 -5 0 -10 9 -10 20 0 26 -29 40 -84 40 l-46 0 0 -55 c0
-55 0 -55 31 -55 22 0 32 5 36 20 11 40 23 18 23 -40 0 -33 -4 -60 -10 -60 -5
0 -10 8 -10 18 0 25 -19 42 -47 42 -22 0 -23 -4 -23 -71 l0 -72 60 6 c68 6 90
19 90 53 0 13 5 24 11 24 6 0 9 -19 7 -47 l-3 -46 -128 -1 c-116 -1 -151 5
-112 20 22 9 22 264 0 264 -8 0 -15 5 -15 10 0 6 47 10 120 10 l120 0 0 -40z
m190 30 c0 -5 -9 -10 -20 -10 -19 0 -20 -7 -20 -135 l0 -135 38 0 c53 0 84 19
96 60 l11 35 3 -44 c6 -73 7 -72 -125 -67 -140 6 -134 5 -105 16 21 9 22 14
22 136 0 117 -1 126 -20 131 -43 11 -17 23 50 23 40 0 70 -4 70 -10z m-902
-346 c25 -17 30 -54 7 -54 -8 0 -15 4 -15 10 0 15 -39 32 -60 25 -32 -10 -23
-32 18 -45 60 -20 82 -38 82 -68 0 -15 -4 -32 -8 -38 -11 -17 -48 -34 -75 -34
-31 0 -77 36 -77 61 0 26 18 24 46 -6 27 -29 33 -30 59 -11 26 19 13 40 -34
55 -69 20 -91 83 -38 109 32 16 69 14 95 -4z m111 -30 l29 -45 27 45 c26 45
55 61 55 31 0 -9 -12 -34 -27 -57 -18 -26 -30 -60 -33 -92 -7 -68 -32 -71 -41
-6 -3 25 -19 70 -37 101 -30 51 -32 69 -10 69 5 0 21 -21 37 -46z m259 30 c23
-16 31 -54 11 -54 -6 0 -19 10 -28 22 -14 16 -24 19 -45 14 -40 -10 -29 -36
22 -51 56 -17 72 -31 72 -65 0 -35 -41 -70 -80 -70 -34 0 -80 35 -80 61 0 23
28 26 36 4 10 -25 41 -37 65 -25 32 18 18 41 -38 62 -54 20 -70 41 -58 79 12
37 83 51 123 23z m175 7 c35 -1 47 -5 47 -16 0 -10 -10 -15 -30 -15 l-30 0 0
-74 c0 -82 -6 -106 -25 -106 -19 0 -25 24 -25 106 l0 74 -30 0 c-19 0 -30 5
-30 14 0 17 13 22 48 20 15 -1 48 -3 75 -3z m235 -5 c13 -14 -16 -26 -64 -26
-51 0 -54 -1 -54 -25 0 -24 3 -25 56 -25 73 0 70 -24 -4 -28 -50 -3 -52 -4
-52 -33 0 -29 0 -29 60 -29 47 0 60 -3 60 -15 0 -11 -12 -15 -47 -16 -27 0
-56 -2 -67 -4 -41 -8 -46 3 -46 106 l0 98 48 3 c52 3 103 0 110 -6z m112 -56
c7 -33 16 -60 19 -60 4 0 13 26 21 58 14 54 17 57 48 60 l33 3 -3 -103 c-2
-84 -6 -103 -18 -103 -12 0 -16 17 -20 75 l-5 75 -14 -67 c-23 -115 -57 -115
-82 -1 l-14 68 -5 -75 c-4 -58 -8 -75 -20 -75 -12 0 -16 19 -18 103 l-3 102
34 0 c34 0 34 -1 47 -60z m-901 -271 c-11 -7 -11 -9 1 -9 13 0 13 -1 0 -10
-13 -9 -13 -11 0 -20 13 -8 12 -10 -2 -10 -10 0 -18 7 -18 16 0 14 -1 14 -16
0 -23 -24 -34 -19 -34 14 0 23 4 30 20 30 11 0 20 -6 20 -12 0 -7 5 -5 11 5 6
9 15 15 21 11 6 -4 5 -10 -3 -15z m203 -14 c-2 -14 -8 -25 -12 -25 -13 0 -18
49 -6 53 18 7 24 -1 18 -28z m75 19 c4 -12 7 -13 14 -3 13 22 19 5 10 -27 -5
-16 -10 -23 -10 -15 -1 11 -4 11 -16 1 -11 -9 -18 -10 -28 -1 -8 6 -17 8 -20
4 -4 -3 -7 6 -7 21 0 15 4 25 9 21 5 -3 12 -1 16 5 9 15 25 12 32 -6z m425
-19 c-4 -24 -15 -26 -18 -4 -1 5 -2 12 -3 17 -1 4 -7 -4 -14 -18 -17 -34 -41
-32 -45 4 -3 26 -1 28 22 24 13 -3 30 -1 37 3 19 12 27 2 21 -26z m119 5 c6 0
8 4 5 8 -2 4 7 8 22 9 15 1 21 -1 14 -4 -10 -4 -10 -8 -2 -19 12 -14 6 -34
-11 -34 -5 0 -9 5 -9 11 0 5 5 7 10 4 6 -3 10 -2 10 3 0 15 -25 21 -41 11 -12
-8 -12 -10 1 -19 13 -8 12 -10 -2 -10 -14 0 -18 8 -17 38 1 20 3 29 6 20 2
-10 9 -18 14 -18z m-1189 13 c-10 -4 -10 -8 -2 -19 12 -14 6 -34 -11 -34 -5 0
-9 5 -9 11 0 5 5 7 10 4 6 -3 10 -1 10 4 0 6 -4 11 -10 11 -5 0 -10 7 -10 15
0 8 8 15 18 14 11 0 12 -2 4 -6z m25 -40 c-3 -10 -5 -2 -5 17 0 19 2 27 5 18
2 -10 2 -26 0 -35z m39 2 c-6 -17 -26 -20 -26 -4 0 5 5 7 10 4 6 -3 10 -1 10
4 0 6 -4 11 -10 11 -5 0 -10 7 -10 16 0 14 2 14 16 -1 9 -8 13 -22 10 -30z
m36 20 c-2 -14 -6 -25 -7 -25 -1 0 -5 11 -7 25 -3 16 -1 25 7 25 8 0 10 -9 7
-25z m38 15 c-13 -9 -13 -10 0 -10 13 0 13 -1 0 -10 -13 -9 -13 -11 0 -20 13
-8 12 -10 -2 -10 -13 0 -18 8 -18 30 0 22 5 30 18 30 14 0 15 -2 2 -10z m40
-2 c0 -7 -5 -20 -10 -28 -8 -12 -10 -9 -10 13 0 15 5 27 10 27 6 0 10 -6 10
-12z m40 -20 c0 -36 -4 -35 -14 5 -4 16 -2 27 4 27 5 0 10 -14 10 -32z m44 6
c4 -15 5 -29 1 -32 -3 -3 -5 0 -5 7 0 8 -7 11 -15 7 -9 -3 -15 0 -15 10 0 8 4
12 10 9 6 -3 7 1 4 9 -3 9 -2 16 4 16 5 0 13 -12 16 -26z m174 19 c-20 -5 -24
-28 -6 -39 8 -5 9 -2 5 10 -5 14 -3 17 8 12 9 -3 15 0 15 9 0 8 8 15 18 15 14
0 15 -2 2 -10 -13 -9 -13 -10 0 -10 12 0 12 -2 1 -9 -24 -15 2 -22 49 -11 3 0
-3 5 -12 11 -10 5 -18 14 -18 19 0 6 8 10 18 9 11 0 12 -2 4 -6 -10 -4 -9 -8
4 -17 9 -7 14 -18 10 -24 -8 -13 -114 -8 -127 5 -15 15 1 43 25 42 16 -1 17
-2 4 -6z m272 -19 c0 -26 -20 -30 -28 -4 -3 7 0 10 7 6 6 -4 11 -1 11 8 0 9 2
16 5 16 3 0 5 -12 5 -26z m60 15 c0 -11 -24 -39 -34 -39 -3 0 -6 11 -6 25 0
18 5 25 20 25 11 0 20 -5 20 -11z m38 -15 c2 -14 -3 -20 -18 -20 -13 0 -19 5
-15 14 3 7 5 18 5 24 0 18 25 2 28 -18z m50 1 c0 -19 -3 -23 -13 -15 -9 8 -15
7 -18 -2 -3 -7 -6 -1 -6 15 -1 20 4 27 18 27 13 0 19 -7 19 -25z m46 -1 c4
-15 5 -29 1 -32 -3 -3 -5 0 -5 7 0 8 -7 11 -15 7 -9 -3 -15 0 -15 10 0 8 4 12
10 9 6 -3 7 1 4 9 -3 9 -2 16 4 16 5 0 13 -12 16 -26z m66 16 c7 11 9 6 9 -20
-1 -19 -3 -27 -6 -17 -5 18 -23 24 -23 7 0 -5 -4 -10 -9 -10 -4 0 -6 12 -3 26
3 19 7 22 13 12 7 -11 11 -10 19 2z m140 0 c-13 -9 -13 -10 0 -10 13 0 13 -1
0 -10 -13 -9 -13 -11 0 -20 13 -8 12 -10 -2 -10 -13 0 -18 8 -18 30 0 22 5 30
18 30 14 0 15 -2 2 -10z m44 -42 c7 -5 5 -8 -6 -8 -14 0 -18 8 -17 33 2 27 2
28 6 7 3 -14 10 -28 17 -32z m-958 5 c-10 -10 -19 5 -10 18 6 11 8 11 12 0 2
-7 1 -15 -2 -18z"/>
<path d="M873 1298 c-63 -31 -70 -211 -10 -253 74 -52 146 36 130 159 -10 77
-66 121 -120 94z"/>
<path d="M850 619 c0 -11 5 -17 10 -14 6 3 10 13 10 21 0 8 -4 14 -10 14 -5 0
-10 -9 -10 -21z"/>
<path d="M1152 624 c4 -21 22 -23 26 -1 2 10 -3 17 -13 17 -10 0 -15 -6 -13
-16z"/>
<path d="M1542 624 c4 -21 22 -23 26 -1 2 10 -3 17 -13 17 -10 0 -15 -6 -13
-16z"/>
</g>
</svg>
